<svg xmlns="http://www.w3.org/2000/svg" viewBox="0 0 52.07 52.07"><defs><style>.cls-1{fill:#1e448a;}</style></defs><g id="Layer_2" data-name="Layer 2"><g id="Layer_1-2" data-name="Layer 1"><path class="cls-1" d="M26,52.07a26,26,0,1,1,26-26,26.07,26.07,0,0,1-26,26M26,2A24.07,24.07,0,1,0,50.1,26,24.1,24.1,0,0,0,26,2"/><path class="cls-1" d="M39.1,15c-3.13-2.52-8.07-2.94-8.29-3a.78.78,0,0,0-.77.46,4.23,4.23,0,0,0-.24.66,19.25,19.25,0,0,1,6.91,2.48A.78.78,0,1,1,35.88,17,20.12,20.12,0,0,0,16.2,17a.79.79,0,0,1-1.09-.25.78.78,0,0,1,.26-1.08,19.25,19.25,0,0,1,6.91-2.48,5.93,5.93,0,0,0-.24-.66.79.79,0,0,0-.78-.46c-.21,0-5.16.44-8.33,3C11.27,16.61,8,25.56,8,33.3a.77.77,0,0,0,.11.39c2.28,4,8.51,5.06,9.94,5.11h0a.81.81,0,0,0,.64-.32l1.43-2a15.41,15.41,0,0,1-6-2.8.8.8,0,0,1-.07-1.11.78.78,0,0,1,1.11-.07c.05,0,3.7,3.14,10.87,3.14s10.83-3.11,10.86-3.14a.79.79,0,0,1,1.11.07.78.78,0,0,1-.07,1.11,15.22,15.22,0,0,1-6,2.8l1.44,2a.79.79,0,0,0,.63.32h0c1.42,0,7.65-1.1,9.94-5.11a.76.76,0,0,0,.1-.39c0-7.74-3.31-16.69-5-18.26M20.93,30.15A3,3,0,0,1,18.18,27a3,3,0,0,1,2.75-3.14A3,3,0,0,1,23.68,27a3,3,0,0,1-2.75,3.14m10.22,0A3,3,0,0,1,28.39,27a3,3,0,0,1,2.76-3.14A3,3,0,0,1,33.9,27a3,3,0,0,1-2.75,3.14"/></g></g></svg>