<svg width="20" height="20" viewBox="0 0 20 20" fill="none" xmlns="http://www.w3.org/2000/svg">
<g clip-path="url(#clip0_64_447)">
<path d="M10 19.8377C8.05955 19.8377 6.16264 19.2623 4.54917 18.1842C2.93571 17.1061 1.67816 15.5738 0.935566 13.781C0.192972 11.9883 -0.00132494 10.0155 0.377247 8.11233C0.755819 6.20912 1.69026 4.4609 3.0624 3.08876C4.43453 1.71662 6.18276 0.782187 8.08597 0.403614C9.98917 0.0250423 11.9619 0.219339 13.7547 0.961934C15.5475 1.70453 17.0798 2.96207 18.1579 4.57554C19.2359 6.18901 19.8114 8.08592 19.8114 10.0264C19.8044 12.6264 18.7685 15.1179 16.93 16.9564C15.0915 18.7948 12.6 19.8307 10 19.8377ZM10 0.943395C8.20295 0.94564 6.44691 1.48093 4.95415 2.48152C3.46138 3.4821 2.29897 4.90301 1.61402 6.56444C0.929064 8.22592 0.752351 10.0532 1.10625 11.8151C1.46014 13.577 2.32873 15.1943 3.60211 16.4624C4.87548 17.7305 6.49642 18.5924 8.25978 18.9389C10.0231 19.2855 11.8497 19.1012 13.5082 18.4093C15.1668 17.7175 16.5829 16.5492 17.5772 15.0523C18.5716 13.5553 19.0996 11.7971 19.0944 9.99999C19.0844 7.59456 18.1219 5.29109 16.4174 3.59371C14.713 1.89634 12.4055 0.943372 10 0.943395Z" fill="white"/>
<path d="M7.68676 7.90564H5.72827V14.2264H7.68676V7.90564Z" fill="white"/>
<path d="M6.69817 7.07924C6.92911 7.08075 7.1553 7.01361 7.34802 6.88641C7.54077 6.7592 7.69141 6.57761 7.78081 6.36467C7.87024 6.15176 7.8944 5.91709 7.85028 5.69037C7.80613 5.46369 7.69568 5.25524 7.53292 5.09139C7.37013 4.92758 7.1624 4.81576 6.93598 4.77014C6.7096 4.72456 6.47477 4.7472 6.26126 4.83524C6.04775 4.92324 5.86519 5.07271 5.73674 5.26459C5.60828 5.45652 5.53968 5.68226 5.53968 5.9132C5.53919 6.06584 5.56877 6.21709 5.6267 6.35825C5.68466 6.49946 5.76987 6.62788 5.87741 6.73614C5.985 6.84444 6.11285 6.93044 6.25368 6.98931C6.39451 7.04818 6.54553 7.07875 6.69817 7.07924Z" fill="white"/>
<path d="M10.8114 10.9094C10.8114 10.0189 11.2189 9.49056 12.0038 9.49056C12.7246 9.49056 13.068 9.99999 13.068 10.9094V14.2264H15.0151V10.2264C15.0151 8.53207 14.0566 7.7132 12.717 7.7132C12.3362 7.70826 11.9606 7.80192 11.6266 7.98505C11.2927 8.16822 11.0118 8.43467 10.8114 8.75848V7.90565H8.92456V14.2264H10.8114V10.9094Z" fill="white"/>
</g>
<defs>
<clipPath id="clip0_64_447">
<rect width="20" height="20" fill="white"/>
</clipPath>
</defs>
</svg>
