<svg width="20" height="30" viewBox="0 0 26 33" fill="none" xmlns="http://www.w3.org/2000/svg">
<g clip-path="url(#clip0_53_62)">
<path d="M12.76 0C9.37665 0.00264842 6.13263 1.34785 3.74024 3.74024C1.34785 6.13263 0.00264842 9.37665 0 12.76C0 21.7 7 28.94 12.76 32.63C18.58 28.94 25.53 21.7 25.53 12.76C25.5273 9.37492 24.1808 6.12939 21.7862 3.73671C19.3917 1.34403 16.1451 -1.0379e-06 12.76 0ZM12.76 18.9C11.5456 18.9 10.3585 18.5399 9.3488 17.8652C8.33908 17.1906 7.5521 16.2316 7.08738 15.1097C6.62266 13.9877 6.50107 12.7532 6.73798 11.5621C6.97489 10.3711 7.55967 9.27706 8.41836 8.41836C9.27706 7.55967 10.3711 6.97489 11.5621 6.73798C12.7532 6.50107 13.9877 6.62266 15.1097 7.08738C16.2316 7.5521 17.1906 8.33908 17.8652 9.3488C18.5399 10.3585 18.9 11.5456 18.9 12.76C18.9013 13.5667 18.7434 14.3657 18.4353 15.1112C18.1272 15.8568 17.675 16.5342 17.1046 17.1046C16.5342 17.675 15.8568 18.1272 15.1112 18.4353C14.3657 18.7434 13.5667 18.9013 12.76 18.9Z" fill="white"/>
</g>
<defs>
<clipPath id="clip0_53_62">
<rect width="25.53" height="32.63" fill="white"/>
</clipPath>
</defs>
</svg>
