<svg width="25" height="20" viewBox="0 0 33 25" fill="none" xmlns="http://www.w3.org/2000/svg">
<path d="M10.53 17.65C9.22248 17.65 7.96852 17.1306 7.04396 16.206C6.11941 15.2815 5.6 14.0275 5.6 12.72V6.5H2.79C2.05005 6.5 1.3404 6.79395 0.817172 7.31717C0.293946 7.8404 2.77555e-07 8.55005 2.77555e-07 9.29V19.22C-0.000220508 19.7133 0.131283 20.1977 0.380921 20.6231C0.630559 21.0485 0.989275 21.3996 1.42 21.64V25L7.13 22H22.28C22.6459 22.0013 23.0085 21.9304 23.3469 21.7913C23.6854 21.6521 23.993 21.4476 24.2522 21.1893C24.5114 20.931 24.7171 20.6241 24.8574 20.2862C24.9978 19.9482 25.07 19.5859 25.07 19.22V17.65H10.53Z" fill="white"/>
<path d="M30 -2.17975e-05H10.53C9.79178 0.00262417 9.0847 0.297737 8.56363 0.820677C8.04257 1.34362 7.75 2.05175 7.75 2.78998V12.72C7.75 13.4573 8.04289 14.1644 8.56424 14.6857C9.08559 15.2071 9.7927 15.5 10.53 15.5H25.68L31.4 18.5V15.14C31.8293 14.898 32.1869 14.5465 32.4363 14.1215C32.6858 13.6964 32.8181 13.2128 32.82 12.72V2.78998C32.82 2.42105 32.7469 2.05579 32.6048 1.71532C32.4627 1.37485 32.2545 1.06594 31.9923 0.806467C31.73 0.546996 31.4189 0.342115 31.0769 0.203682C30.7349 0.065248 30.3689 -0.00398875 30 -2.17975e-05ZM16.28 7.26998C16.0236 7.27193 15.7724 7.19744 15.5586 7.056C15.3447 6.91456 15.1778 6.71259 15.0793 6.47589C14.9807 6.23918 14.9549 5.97847 15.0052 5.72704C15.0555 5.47561 15.1796 5.24487 15.3616 5.06428C15.5436 4.88368 15.7753 4.76143 16.0271 4.71312C16.2789 4.66481 16.5394 4.69264 16.7754 4.79305C17.0113 4.89347 17.2119 5.06192 17.3517 5.27689C17.4914 5.49186 17.564 5.7436 17.56 5.99998C17.56 6.33946 17.4251 6.66503 17.1851 6.90507C16.9451 7.14512 16.6195 7.27998 16.28 7.27998M20.28 7.27998C19.9588 7.25161 19.6598 7.10396 19.442 6.86611C19.2243 6.62826 19.1035 6.31746 19.1035 5.99498C19.1035 5.67249 19.2243 5.3617 19.442 5.12385C19.6598 4.886 19.9588 4.73834 20.28 4.70998C20.4583 4.69424 20.6379 4.71576 20.8074 4.77319C20.9769 4.83061 21.1326 4.92268 21.2646 5.04354C21.3966 5.1644 21.502 5.3114 21.5741 5.4752C21.6462 5.639 21.6835 5.81601 21.6835 5.99498C21.6835 6.17395 21.6462 6.35096 21.5741 6.51476C21.502 6.67856 21.3966 6.82556 21.2646 6.94642C21.1326 7.06727 20.9769 7.15934 20.8074 7.21677C20.6379 7.27419 20.4583 7.29572 20.28 7.27998ZM24.28 7.27998C24.0244 7.27997 23.7746 7.20405 23.5623 7.06186C23.3499 6.91967 23.1846 6.7176 23.0873 6.4813C22.9899 6.245 22.965 5.98512 23.0156 5.73461C23.0662 5.48411 23.19 5.25427 23.3714 5.07427C23.5528 4.89426 23.7836 4.7722 24.0345 4.72356C24.2854 4.67492 24.5451 4.7019 24.7806 4.80107C25.0162 4.90024 25.2169 5.06714 25.3575 5.28059C25.498 5.49404 25.572 5.74442 25.57 5.99998C25.57 6.33946 25.4351 6.66503 25.1951 6.90507C24.9551 7.14512 24.6295 7.27998 24.29 7.27998" fill="white"/>
</svg>
