<svg width="352" height="87" viewBox="0 0 352 87" fill="none" xmlns="http://www.w3.org/2000/svg">
<g clip-path="url(#clip0_1_25)">
<mask id="mask0_1_25" style="mask-type:luminance" maskUnits="userSpaceOnUse" x="13" y="25" width="15" height="13">
<path d="M27.02 25.72H13.51V37.71H27.02V25.72Z" fill="white"/>
</mask>
<g mask="url(#mask0_1_25)">
<path d="M27.02 25.72L20.26 37.7L13.51 25.72H27.02Z" fill="#0A6DB4"/>
</g>
<mask id="mask1_1_25" style="mask-type:luminance" maskUnits="userSpaceOnUse" x="27" y="13" width="14" height="13">
<path d="M40.54 13.75H27.03V25.73H40.54V13.75Z" fill="white"/>
</mask>
<g mask="url(#mask1_1_25)">
<path d="M27.03 25.73L33.78 13.75L40.53 25.73H27.03Z" fill="#219ED9"/>
</g>
<mask id="mask2_1_25" style="mask-type:luminance" maskUnits="userSpaceOnUse" x="40" y="13" width="15" height="13">
<path d="M54.06 13.75H40.55V25.73H54.06V13.75Z" fill="white"/>
</mask>
<g mask="url(#mask2_1_25)">
<path d="M40.55 25.73L47.3 13.75L54.05 25.73H40.55Z" fill="#219ED9"/>
</g>
<mask id="mask3_1_25" style="mask-type:luminance" maskUnits="userSpaceOnUse" x="13" y="13" width="15" height="13">
<path d="M27.02 13.75H13.51V25.73H27.02V13.75Z" fill="white"/>
</mask>
<g mask="url(#mask3_1_25)">
<path d="M13.51 25.73L20.26 13.75L27.02 25.73H13.51Z" fill="#137DC1"/>
</g>
<mask id="mask4_1_25" style="mask-type:luminance" maskUnits="userSpaceOnUse" x="20" y="13" width="14" height="13">
<path d="M33.78 13.75H20.27V25.73H33.78V13.75Z" fill="white"/>
</mask>
<g mask="url(#mask4_1_25)">
<path d="M33.78 13.74L27.02 25.73L20.27 13.74H33.78Z" fill="#248DCD"/>
</g>
<mask id="mask5_1_25" style="mask-type:luminance" maskUnits="userSpaceOnUse" x="33" y="13" width="15" height="13">
<path d="M47.3 13.75H33.79V25.73H47.3V13.75Z" fill="white"/>
</mask>
<g mask="url(#mask5_1_25)">
<path d="M47.3 13.74L40.54 25.73L33.79 13.74H47.3Z" fill="#21AEE4"/>
</g>
<mask id="mask6_1_25" style="mask-type:luminance" maskUnits="userSpaceOnUse" x="81" y="13" width="14" height="13">
<path d="M94.71 13.75H81.2V25.73H94.71V13.75Z" fill="white"/>
</mask>
<g mask="url(#mask6_1_25)">
<path d="M81.2 25.73L87.96 13.75L94.71 25.73H81.2Z" fill="#1168AF"/>
</g>
<mask id="mask7_1_25" style="mask-type:luminance" maskUnits="userSpaceOnUse" x="67" y="13" width="15" height="13">
<path d="M81.19 13.75H67.68V25.73H81.19V13.75Z" fill="white"/>
</mask>
<g mask="url(#mask7_1_25)">
<path d="M67.69 25.73L74.44 13.75L81.19 25.73H67.69Z" fill="#1E448A"/>
</g>
<mask id="mask8_1_25" style="mask-type:luminance" maskUnits="userSpaceOnUse" x="74" y="13" width="14" height="13">
<path d="M87.95 13.75H74.44V25.73H87.95V13.75Z" fill="white"/>
</mask>
<g mask="url(#mask8_1_25)">
<path d="M87.95 13.74L81.2 25.73L74.44 13.74H87.95Z" fill="#1058A2"/>
</g>
<mask id="mask9_1_25" style="mask-type:luminance" maskUnits="userSpaceOnUse" x="98" y="9" width="15" height="13">
<path d="M112.44 9.53998H98.93V21.52H112.44V9.53998Z" fill="white"/>
</mask>
<g mask="url(#mask9_1_25)">
<path d="M98.93 21.52L105.68 9.53998L112.44 21.52H98.93Z" fill="#2BBCED"/>
</g>
<mask id="mask10_1_25" style="mask-type:luminance" maskUnits="userSpaceOnUse" x="92" y="9" width="14" height="13">
<path d="M105.68 9.53998H92.17V21.52H105.68V9.53998Z" fill="white"/>
</mask>
<g mask="url(#mask10_1_25)">
<path d="M105.68 9.53998L98.92 21.52L92.17 9.53998H105.68Z" fill="#1C9AD6"/>
</g>
<mask id="mask11_1_25" style="mask-type:luminance" maskUnits="userSpaceOnUse" x="112" y="4" width="10" height="8">
<path d="M121.09 4.04999H112.54V11.63H121.09V4.04999Z" fill="white"/>
</mask>
<g mask="url(#mask11_1_25)">
<path d="M112.54 11.63L116.81 4.04999L121.09 11.63H112.54Z" fill="#1168AF"/>
</g>
<mask id="mask12_1_25" style="mask-type:luminance" maskUnits="userSpaceOnUse" x="108" y="4" width="9" height="8">
<path d="M116.81 4.04999H108.26V11.63H116.81V4.04999Z" fill="white"/>
</mask>
<g mask="url(#mask12_1_25)">
<path d="M116.81 4.04999L112.54 11.63L108.27 4.04999H116.81Z" fill="#1058A2"/>
</g>
<mask id="mask13_1_25" style="mask-type:luminance" maskUnits="userSpaceOnUse" x="99" y="0" width="8" height="7">
<path d="M106.17 0H99.4V6.01H106.17V0Z" fill="white"/>
</mask>
<g mask="url(#mask13_1_25)">
<path d="M99.4 6L102.78 0L106.16 6H99.4Z" fill="#1E448A"/>
</g>
<mask id="mask14_1_25" style="mask-type:luminance" maskUnits="userSpaceOnUse" x="96" y="0" width="7" height="7">
<path d="M102.78 0H96.01V6.01H102.78V0Z" fill="white"/>
</mask>
<g mask="url(#mask14_1_25)">
<path d="M102.78 0L99.39 6L96.01 0H102.78Z" fill="#175EA7"/>
</g>
<mask id="mask15_1_25" style="mask-type:luminance" maskUnits="userSpaceOnUse" x="101" y="25" width="14" height="13">
<path d="M114.96 25.74H101.45V37.72H114.96V25.74Z" fill="white"/>
</mask>
<g mask="url(#mask15_1_25)">
<path d="M101.45 37.72L108.21 25.74L114.96 37.72H101.45Z" fill="#1168AF"/>
</g>
<mask id="mask16_1_25" style="mask-type:luminance" maskUnits="userSpaceOnUse" x="94" y="25" width="15" height="13">
<path d="M108.2 25.74H94.69V37.72H108.2V25.74Z" fill="white"/>
</mask>
<g mask="url(#mask16_1_25)">
<path d="M108.2 25.74L101.45 37.72L94.69 25.74H108.2Z" fill="#1C9AD6"/>
</g>
<mask id="mask17_1_25" style="mask-type:luminance" maskUnits="userSpaceOnUse" x="108" y="37" width="14" height="13">
<path d="M121.75 37.73H108.24V49.72H121.75V37.73Z" fill="white"/>
</mask>
<g mask="url(#mask17_1_25)">
<path d="M108.24 49.71L114.99 37.73L121.75 49.71H108.24Z" fill="#1E448A"/>
</g>
<mask id="mask18_1_25" style="mask-type:luminance" maskUnits="userSpaceOnUse" x="101" y="37" width="14" height="13">
<path d="M114.99 37.73H101.48V49.72H114.99V37.73Z" fill="white"/>
</mask>
<g mask="url(#mask18_1_25)">
<path d="M114.99 37.73L108.23 49.71L101.48 37.73H114.99Z" fill="#1058A2"/>
</g>
<mask id="mask19_1_25" style="mask-type:luminance" maskUnits="userSpaceOnUse" x="108" y="49" width="14" height="13">
<path d="M121.77 49.71H108.26V61.69H121.77V49.71Z" fill="white"/>
</mask>
<g mask="url(#mask19_1_25)">
<path d="M121.77 49.71L115.02 61.69L108.27 49.71H121.77Z" fill="#175EA7"/>
</g>
<mask id="mask20_1_25" style="mask-type:luminance" maskUnits="userSpaceOnUse" x="101" y="49" width="15" height="13">
<path d="M115.02 49.73H101.51V61.71H115.02V49.73Z" fill="white"/>
</mask>
<g mask="url(#mask20_1_25)">
<path d="M101.51 61.7L108.26 49.72L115.02 61.7H101.51Z" fill="#1E448A"/>
</g>
<mask id="mask21_1_25" style="mask-type:luminance" maskUnits="userSpaceOnUse" x="101" y="61" width="15" height="13">
<path d="M115.04 61.7H101.53V73.68H115.04V61.7Z" fill="white"/>
</mask>
<g mask="url(#mask21_1_25)">
<path d="M115.04 61.7L108.29 73.68L101.53 61.7H115.04Z" fill="#1058A2"/>
</g>
<mask id="mask22_1_25" style="mask-type:luminance" maskUnits="userSpaceOnUse" x="94" y="61" width="15" height="13">
<path d="M108.28 61.72H94.77V73.7H108.28V61.72Z" fill="white"/>
</mask>
<g mask="url(#mask22_1_25)">
<path d="M94.78 73.7L101.53 61.72L108.28 73.7H94.78Z" fill="#1168AF"/>
</g>
<mask id="mask23_1_25" style="mask-type:luminance" maskUnits="userSpaceOnUse" x="94" y="73" width="15" height="13">
<path d="M108.31 73.69H94.8V85.68H108.31V73.69Z" fill="white"/>
</mask>
<g mask="url(#mask23_1_25)">
<path d="M108.31 73.69L101.55 85.67L94.8 73.69H108.31Z" fill="#1C9AD6"/>
</g>
<mask id="mask24_1_25" style="mask-type:luminance" maskUnits="userSpaceOnUse" x="6" y="25" width="15" height="13">
<path d="M20.26 25.74H6.75V37.72H20.26V25.74Z" fill="white"/>
</mask>
<g mask="url(#mask24_1_25)">
<path d="M6.75 37.71L13.51 25.73L20.26 37.71H6.75Z" fill="#175EA7"/>
</g>
<mask id="mask25_1_25" style="mask-type:luminance" maskUnits="userSpaceOnUse" x="6" y="37" width="15" height="13">
<path d="M20.26 37.72H6.75V49.7H20.26V37.72Z" fill="white"/>
</mask>
<g mask="url(#mask25_1_25)">
<path d="M20.26 37.71L13.51 49.7L6.76001 37.71H20.26Z" fill="#0A4E96"/>
</g>
<mask id="mask26_1_25" style="mask-type:luminance" maskUnits="userSpaceOnUse" x="0" y="49" width="14" height="13">
<path d="M13.53 49.71H0.0200195V61.69H13.53V49.71Z" fill="white"/>
</mask>
<g mask="url(#mask26_1_25)">
<path d="M13.53 49.71L6.78002 61.69L0.0200195 49.71H13.53Z" fill="#1058A2"/>
</g>
<mask id="mask27_1_25" style="mask-type:luminance" maskUnits="userSpaceOnUse" x="0" y="37" width="14" height="13">
<path d="M13.51 37.73H0V49.71H13.51V37.73Z" fill="white"/>
</mask>
<g mask="url(#mask27_1_25)">
<path d="M0 49.71L6.75 37.72L13.51 49.71H0Z" fill="#1E448A"/>
</g>
<mask id="mask28_1_25" style="mask-type:luminance" maskUnits="userSpaceOnUse" x="6" y="49" width="15" height="13">
<path d="M20.3 49.72H6.78998V61.7H20.3V49.72Z" fill="white"/>
</mask>
<g mask="url(#mask28_1_25)">
<path d="M6.78998 61.7L13.54 49.72L20.29 61.7H6.78998Z" fill="#1168AF"/>
</g>
<mask id="mask29_1_25" style="mask-type:luminance" maskUnits="userSpaceOnUse" x="6" y="61" width="15" height="13">
<path d="M20.32 61.7H6.81V73.68H20.32V61.7Z" fill="white"/>
</mask>
<g mask="url(#mask29_1_25)">
<path d="M20.32 61.7L13.56 73.68L6.81 61.7H20.32Z" fill="#1058A2"/>
</g>
<mask id="mask30_1_25" style="mask-type:luminance" maskUnits="userSpaceOnUse" x="13" y="61" width="15" height="13">
<path d="M27.08 61.71H13.57V73.69H27.08V61.71Z" fill="white"/>
</mask>
<g mask="url(#mask30_1_25)">
<path d="M13.57 73.69L20.32 61.71L27.08 73.69H13.57Z" fill="#1E448A"/>
</g>
<mask id="mask31_1_25" style="mask-type:luminance" maskUnits="userSpaceOnUse" x="13" y="73" width="15" height="13">
<path d="M27.1 73.69H13.59V85.68H27.1V73.69Z" fill="white"/>
</mask>
<g mask="url(#mask31_1_25)">
<path d="M27.1 73.69L20.35 85.67L13.59 73.69H27.1Z" fill="#0A4E96"/>
</g>
<mask id="mask32_1_25" style="mask-type:luminance" maskUnits="userSpaceOnUse" x="20" y="73" width="14" height="13">
<path d="M33.86 73.71H20.35V85.69H33.86V73.71Z" fill="white"/>
</mask>
<g mask="url(#mask32_1_25)">
<path d="M20.36 85.68L27.11 73.7L33.86 85.68H20.36Z" fill="#175EA7"/>
</g>
<mask id="mask33_1_25" style="mask-type:luminance" maskUnits="userSpaceOnUse" x="27" y="73" width="14" height="13">
<path d="M40.62 73.69H27.11V85.68H40.62V73.69Z" fill="white"/>
</mask>
<g mask="url(#mask33_1_25)">
<path d="M40.62 73.69L33.87 85.67L27.11 73.69H40.62Z" fill="#0A6DB4"/>
</g>
<mask id="mask34_1_25" style="mask-type:luminance" maskUnits="userSpaceOnUse" x="33" y="73" width="15" height="13">
<path d="M47.38 73.71H33.87V85.69H47.38V73.71Z" fill="white"/>
</mask>
<g mask="url(#mask34_1_25)">
<path d="M33.87 85.68L40.63 73.7L47.38 85.68H33.87Z" fill="#137DC1"/>
</g>
<mask id="mask35_1_25" style="mask-type:luminance" maskUnits="userSpaceOnUse" x="40" y="73" width="15" height="13">
<path d="M54.14 73.69H40.63V85.68H54.14V73.69Z" fill="white"/>
</mask>
<g mask="url(#mask35_1_25)">
<path d="M54.14 73.69L47.38 85.67L40.63 73.69H54.14Z" fill="#248DCD"/>
</g>
<mask id="mask36_1_25" style="mask-type:luminance" maskUnits="userSpaceOnUse" x="67" y="73" width="15" height="13">
<path d="M81.23 73.69H67.72V85.68H81.23V73.69Z" fill="white"/>
</mask>
<g mask="url(#mask36_1_25)">
<path d="M81.23 73.69L74.47 85.67L67.72 73.69H81.23Z" fill="#1058A2"/>
</g>
<mask id="mask37_1_25" style="mask-type:luminance" maskUnits="userSpaceOnUse" x="74" y="73" width="14" height="13">
<path d="M87.99 73.71H74.48V85.69H87.99V73.71Z" fill="white"/>
</mask>
<g mask="url(#mask37_1_25)">
<path d="M74.48 85.68L81.23 73.7L87.99 85.68H74.48Z" fill="#1168AF"/>
</g>
<mask id="mask38_1_25" style="mask-type:luminance" maskUnits="userSpaceOnUse" x="81" y="73" width="14" height="13">
<path d="M94.75 73.69H81.24V85.68H94.75V73.69Z" fill="white"/>
</mask>
<g mask="url(#mask38_1_25)">
<path d="M94.74 73.69L87.99 85.67L81.24 73.69H94.74Z" fill="#1C9AD6"/>
</g>
<mask id="mask39_1_25" style="mask-type:luminance" maskUnits="userSpaceOnUse" x="88" y="73" width="14" height="13">
<path d="M101.51 73.71H88V85.69H101.51V73.71Z" fill="white"/>
</mask>
<g mask="url(#mask39_1_25)">
<path d="M88 85.68L94.75 73.7L101.51 85.68H88Z" fill="#2BBCED"/>
</g>
<mask id="mask40_1_25" style="mask-type:luminance" maskUnits="userSpaceOnUse" x="40" y="61" width="15" height="13">
<path d="M54.17 61.71H40.66V73.69H54.17V61.71Z" fill="white"/>
</mask>
<g mask="url(#mask40_1_25)">
<path d="M40.66 73.69L47.41 61.71L54.17 73.69H40.66Z" fill="#219ED9"/>
</g>
<mask id="mask41_1_25" style="mask-type:luminance" maskUnits="userSpaceOnUse" x="47" y="61" width="14" height="13">
<path d="M60.92 61.7H47.41V73.68H60.92V61.7Z" fill="white"/>
</mask>
<g mask="url(#mask41_1_25)">
<path d="M60.92 61.7L54.17 73.68L47.41 61.7H60.92Z" fill="#21AEE4"/>
</g>
<mask id="mask42_1_25" style="mask-type:luminance" maskUnits="userSpaceOnUse" x="47" y="49" width="14" height="13">
<path d="M60.95 49.72H47.44V61.7H60.95V49.72Z" fill="white"/>
</mask>
<g mask="url(#mask42_1_25)">
<path d="M47.44 61.7L54.2 49.72L60.95 61.7H47.44Z" fill="#219ED9"/>
</g>
<mask id="mask43_1_25" style="mask-type:luminance" maskUnits="userSpaceOnUse" x="54" y="49" width="14" height="13">
<path d="M67.71 49.71H54.2V61.69H67.71V49.71Z" fill="white"/>
</mask>
<g mask="url(#mask43_1_25)">
<path d="M67.71 49.71L60.95 61.69L54.2 49.71H67.71Z" fill="#248DCD"/>
</g>
<mask id="mask44_1_25" style="mask-type:luminance" maskUnits="userSpaceOnUse" x="54" y="37" width="14" height="13">
<path d="M67.74 37.73H54.23V49.71H67.74V37.73Z" fill="white"/>
</mask>
<g mask="url(#mask44_1_25)">
<path d="M54.23 49.71L60.98 37.72L67.74 49.71H54.23Z" fill="#137DC1"/>
</g>
<mask id="mask45_1_25" style="mask-type:luminance" maskUnits="userSpaceOnUse" x="67" y="61" width="15" height="13">
<path d="M81.15 61.71H67.64V73.69H81.15V61.71Z" fill="white"/>
</mask>
<g mask="url(#mask45_1_25)">
<path d="M67.64 73.69L74.4 61.71L81.15 73.69H67.64Z" fill="#1E448A"/>
</g>
<mask id="mask46_1_25" style="mask-type:luminance" maskUnits="userSpaceOnUse" x="74" y="61" width="14" height="13">
<path d="M87.91 61.7H74.4V73.68H87.91V61.7Z" fill="white"/>
</mask>
<g mask="url(#mask46_1_25)">
<path d="M87.91 61.7L81.15 73.68L74.4 61.7H87.91Z" fill="#175EA7"/>
</g>
<mask id="mask47_1_25" style="mask-type:luminance" maskUnits="userSpaceOnUse" x="74" y="49" width="14" height="13">
<path d="M87.94 49.72H74.43V61.7H87.94V49.72Z" fill="white"/>
</mask>
<g mask="url(#mask47_1_25)">
<path d="M74.43 61.7L81.18 49.72L87.94 61.7H74.43Z" fill="#1D80C3"/>
</g>
<mask id="mask48_1_25" style="mask-type:luminance" maskUnits="userSpaceOnUse" x="81" y="49" width="14" height="13">
<path d="M94.69 49.71H81.18V61.69H94.69V49.71Z" fill="white"/>
</mask>
<g mask="url(#mask48_1_25)">
<path d="M94.69 49.71L87.94 61.69L81.18 49.71H94.69Z" fill="#2796D3"/>
</g>
<mask id="mask49_1_25" style="mask-type:luminance" maskUnits="userSpaceOnUse" x="81" y="37" width="14" height="13">
<path d="M94.72 37.73H81.21V49.71H94.72V37.73Z" fill="white"/>
</mask>
<g mask="url(#mask49_1_25)">
<path d="M81.21 49.71L87.97 37.72L94.72 49.71H81.21Z" fill="#2DBBED"/>
</g>
<mask id="mask50_1_25" style="mask-type:luminance" maskUnits="userSpaceOnUse" x="60" y="37" width="15" height="13">
<path d="M74.5 37.72H60.99V49.7H74.5V37.72Z" fill="white"/>
</mask>
<g mask="url(#mask50_1_25)">
<path d="M74.49 37.71L67.74 49.7L60.98 37.71H74.49Z" fill="#0A6DB4"/>
</g>
<mask id="mask51_1_25" style="mask-type:luminance" maskUnits="userSpaceOnUse" x="61" y="25" width="14" height="13">
<path d="M74.52 25.74H61.01V37.72H74.52V25.74Z" fill="white"/>
</mask>
<g mask="url(#mask51_1_25)">
<path d="M61.02 37.71L67.77 25.73L74.52 37.71H61.02Z" fill="#175EA7"/>
</g>
<mask id="mask52_1_25" style="mask-type:luminance" maskUnits="userSpaceOnUse" x="67" y="25" width="15" height="13">
<path d="M81.28 25.72H67.77V37.71H81.28V25.72Z" fill="white"/>
</mask>
<g mask="url(#mask52_1_25)">
<path d="M81.28 25.72L74.52 37.7L67.77 25.72H81.28Z" fill="#0A4E96"/>
</g>
<mask id="mask53_1_25" style="mask-type:luminance" maskUnits="userSpaceOnUse" x="40" y="25" width="15" height="13">
<path d="M54.05 25.72H40.54V37.71H54.05V25.72Z" fill="white"/>
</mask>
<g mask="url(#mask53_1_25)">
<path d="M54.05 25.72L47.3 37.7L40.54 25.72H54.05Z" fill="#248DCD"/>
</g>
<mask id="mask54_1_25" style="mask-type:luminance" maskUnits="userSpaceOnUse" x="33" y="25" width="15" height="13">
<path d="M47.3 25.74H33.79V37.72H47.3V25.74Z" fill="white"/>
</mask>
<g mask="url(#mask54_1_25)">
<path d="M33.79 37.71L40.54 25.73L47.3 37.71H33.79Z" fill="#137DC1"/>
</g>
<mask id="mask55_1_25" style="mask-type:luminance" maskUnits="userSpaceOnUse" x="33" y="37" width="15" height="13">
<path d="M47.3 37.72H33.79V49.7H47.3V37.72Z" fill="white"/>
</mask>
<g mask="url(#mask55_1_25)">
<path d="M47.3 37.71L40.55 49.7L33.79 37.71H47.3Z" fill="#0A6DB4"/>
</g>
<mask id="mask56_1_25" style="mask-type:luminance" maskUnits="userSpaceOnUse" x="27" y="49" width="14" height="13">
<path d="M40.57 49.71H27.06V61.69H40.57V49.71Z" fill="white"/>
</mask>
<g mask="url(#mask56_1_25)">
<path d="M40.57 49.71L33.81 61.69L27.06 49.71H40.57Z" fill="#0A4E96"/>
</g>
<mask id="mask57_1_25" style="mask-type:luminance" maskUnits="userSpaceOnUse" x="27" y="37" width="14" height="13">
<path d="M40.55 37.73H27.04V49.71H40.55V37.73Z" fill="white"/>
</mask>
<g mask="url(#mask57_1_25)">
<path d="M27.04 49.71L33.79 37.72L40.54 49.71H27.04Z" fill="#175EA7"/>
</g>
<path d="M132.55 13.35H135.26L138.18 21.22L141.1 13.35H143.75L139.23 24.6H137.06L132.55 13.35Z" fill="white"/>
<path d="M167.22 13.27H169.48L174.27 24.52H171.7L170.7 22.02H166L165 24.52H162.49L167.22 13.27ZM169.8 19.85L168.32 16.23L166.84 19.85H169.8Z" fill="white"/>
<path d="M195.51 13.36H200.62C201.21 13.3204 201.802 13.4 202.36 13.5941C202.918 13.7883 203.432 14.093 203.87 14.49C204.203 14.8235 204.464 15.2221 204.636 15.6609C204.808 16.0996 204.887 16.5691 204.87 17.04C204.907 17.7992 204.693 18.5494 204.261 19.1747C203.829 19.8001 203.203 20.2659 202.48 20.5L205.2 24.5H202.33L199.9 21H198V24.57H195.54L195.51 13.36ZM200.51 18.78C201.72 18.78 202.39 18.16 202.39 17.2C202.39 16.13 201.67 15.6 200.46 15.6H198V18.81L200.51 18.78Z" fill="white"/>
<path d="M225.8 22.9L227.25 21.16C228.162 21.9952 229.344 22.4744 230.58 22.51C231.58 22.51 232.19 22.11 232.19 21.46C232.19 20.84 231.81 20.46 229.95 20.04C227.68 19.48 226.24 18.82 226.24 16.62C226.24 14.62 227.86 13.26 230.15 13.26C231.655 13.2362 233.121 13.7344 234.3 14.67L233 16.47C232.168 15.8157 231.156 15.4318 230.1 15.37C229.1 15.37 228.67 15.78 228.67 16.37C228.67 17.12 229.14 17.37 231.07 17.84C233.34 18.44 234.62 19.24 234.62 21.19C234.62 23.41 232.92 24.65 230.52 24.65C228.773 24.6689 227.083 24.034 225.78 22.87" fill="white"/>
<path d="M256.11 19.74V13.35H258.57V19.67C258.57 21.51 259.46 22.43 260.98 22.43C262.5 22.43 263.39 21.54 263.39 19.75V13.35H265.85V19.66C265.85 23.04 263.95 24.66 260.95 24.66C257.95 24.66 256.11 23 256.11 19.66" fill="white"/>
<path d="M290.44 13.35H287.98V24.52H290.44V13.35Z" fill="white"/>
<path d="M315.35 15.62H311.95V13.35H321.2V15.62H317.8V24.52H315.35V15.62Z" fill="white"/>
<path d="M342.6 13.35H351.02V15.54H345.04V17.8H350.31V19.99H345.04V22.33H351.1V24.52H342.6V13.35Z" fill="white"/>
<path d="M180.8 53.15V52C180.795 48.2011 179.283 44.5592 176.597 41.873C173.911 39.1867 170.269 37.6753 166.47 37.67H146.72C142.921 37.6779 139.28 39.1899 136.592 41.8753C133.905 44.5607 132.391 48.201 132.38 52V71.74C132.38 74.2597 133.049 76.7343 134.32 78.91C135.582 81.0825 137.391 82.8871 139.566 84.1448C141.741 85.4025 144.207 86.0697 146.72 86.08H166.47C170.27 86.0721 173.912 84.5584 176.598 81.8705C179.284 79.1827 180.795 75.5398 180.8 71.74V70.58H171.89V71.74C171.89 73.1784 171.319 74.558 170.303 75.576C169.287 76.5941 167.908 77.1673 166.47 77.17H146.72C145.281 77.1673 143.901 76.5944 142.883 75.5767C141.866 74.5589 141.293 73.1793 141.29 71.74V52C141.293 50.5616 141.866 49.183 142.884 48.1669C143.902 47.1507 145.282 46.58 146.72 46.58H166.47C167.907 46.58 169.286 47.151 170.303 48.1675C171.319 49.1839 171.89 50.5625 171.89 52V53.16L180.8 53.15Z" fill="#2BBCED"/>
<path d="M324.21 37.66C321.698 37.6683 319.232 38.3335 317.057 39.5895C314.882 40.8455 313.073 42.6487 311.81 44.82C310.538 46.999 309.869 49.477 309.87 52V71.74C309.87 74.2597 310.539 76.7342 311.81 78.91C313.072 81.0824 314.881 82.8871 317.056 84.1448C319.231 85.4025 321.697 86.0696 324.21 86.08H351.69V77.17H324.21C322.771 77.1673 321.391 76.5944 320.373 75.5766C319.356 74.5589 318.783 73.1793 318.78 71.74V52C318.783 50.5616 319.356 49.183 320.374 48.1668C321.392 47.1507 322.772 46.58 324.21 46.58H351.69V37.66H324.21Z" fill="#1E448A"/>
<path d="M351.69 57.41H323.03V66.32H351.69V57.41Z" fill="#1E448A"/>
<path d="M225.63 37.66H205.88C202.079 37.6653 198.436 39.1781 195.749 41.8665C193.063 44.5549 191.553 48.1993 191.55 52V71.74C191.553 75.5406 193.063 79.185 195.749 81.8734C198.436 84.5618 202.079 86.0747 205.88 86.08H225.63C227.516 86.0839 229.384 85.7159 231.127 84.997C232.87 84.2781 234.455 83.2225 235.789 81.8905C237.124 80.5585 238.183 78.9764 238.906 77.2346C239.628 75.4928 240 73.6257 240 71.74V52C239.997 48.2002 238.487 44.5569 235.8 41.8701C233.113 39.1832 229.47 37.6726 225.67 37.67M225.67 77.18H205.88C204.442 77.1773 203.063 76.6041 202.047 75.586C201.031 74.568 200.46 73.1884 200.46 71.75V52C200.46 50.5625 201.031 49.1839 202.047 48.1675C203.064 47.151 204.443 46.58 205.88 46.58H225.63C227.068 46.58 228.448 47.1507 229.466 48.1668C230.484 49.183 231.057 50.5616 231.06 52V71.74C231.057 73.1793 230.484 74.5589 229.467 75.5766C228.449 76.5944 227.069 77.1673 225.63 77.17" fill="#248DCD"/>
<path d="M287.58 69.24L295 61.88C296.981 59.8973 298.331 57.3723 298.879 54.6235C299.427 51.8747 299.148 49.0253 298.078 46.4346C297.009 43.8438 295.196 41.6279 292.868 40.0663C290.541 38.5047 287.803 37.6674 285 37.66H265C261.208 37.6811 257.578 39.2003 254.901 41.8864C252.224 44.5725 250.718 48.2078 250.71 52V86.08H259.62V52C259.617 50.5677 260.182 49.1925 261.19 48.1751C262.198 47.1576 263.568 46.5805 265 46.57H284.88C285.921 46.5733 286.938 46.8844 287.803 47.4642C288.668 48.044 289.342 48.8665 289.741 49.8284C290.139 50.7903 290.245 51.8486 290.044 52.8702C289.842 53.8918 289.344 54.8311 288.61 55.57L275.8 68.43L289.13 86.08H300.3L287.58 69.24Z" fill="#1058A2"/>
</g>
<defs>
<clipPath id="clip0_1_25">
<rect width="351.69" height="86.07" fill="white"/>
</clipPath>
</defs>
</svg>
