<svg width="20" height="20" viewBox="0 0 53 53" fill="none" xmlns="http://www.w3.org/2000/svg">
<mask id="mask0_64_434" style="mask-type:luminance" maskUnits="userSpaceOnUse" x="0" y="0" width="53" height="53">
<path d="M52.58 0.5H0.5V52.57H52.58V0.5Z" fill="white"/>
</mask>
<g mask="url(#mask0_64_434)">
<path d="M26.5 52.57C21.3577 52.57 16.3309 51.0451 12.0552 48.1882C7.77951 45.3313 4.44702 41.2707 2.47914 36.5198C0.511265 31.7689 -0.00362098 26.5412 0.999594 21.4977C2.00281 16.4542 4.47907 11.8214 8.11524 8.18524C11.7514 4.54908 16.3842 2.07282 21.4277 1.0696C26.4712 0.0663865 31.6989 0.581273 36.4498 2.54915C41.2007 4.51703 45.2613 7.84951 48.1182 12.1252C50.9751 16.4009 52.5 21.4277 52.5 26.57C52.4815 33.46 49.7363 40.0624 44.8644 44.9344C39.9924 49.8063 33.39 52.5515 26.5 52.57ZM26.5 2.50002C21.7377 2.50597 17.0842 3.92448 13.1284 6.57604C9.17254 9.2276 6.09215 12.993 4.27703 17.3958C2.46191 21.7987 1.99362 26.641 2.93144 31.31C3.86926 35.979 6.17103 40.265 9.54547 43.6254C12.9199 46.9859 17.2154 49.2698 21.8883 50.1882C26.5612 51.1066 31.4015 50.6182 35.7967 48.7847C40.1919 46.9513 43.9445 43.8553 46.5796 39.8885C49.2147 35.9217 50.6139 31.2623 50.6 26.5C50.5736 20.1256 48.0228 14.0214 43.506 9.52335C38.9893 5.02533 32.8744 2.49996 26.5 2.50002Z" fill="white"/>
<path d="M22.72 41.68H28.82V26.41H33.07L33.5 21.3H28.82V18.38C28.82 17.18 29.06 16.7 30.23 16.7H33.5V11.4H29.31C24.77 11.4 22.72 13.4 22.72 17.22V21.3H19.55V26.5H22.72V41.68Z" fill="white"/>
</g>
</svg>
