<svg width="53" height="53" viewBox="0 0 53 53" fill="none" xmlns="http://www.w3.org/2000/svg">
<path d="M26.5 52.57C21.3577 52.57 16.3309 51.0451 12.0552 48.1882C7.77951 45.3313 4.44702 41.2707 2.47914 36.5198C0.511265 31.7689 -0.00362134 26.5412 0.999594 21.4977C2.00281 16.4542 4.47907 11.8214 8.11524 8.18524C11.7514 4.54908 16.3842 2.07282 21.4277 1.0696C26.4712 0.066386 31.6989 0.581273 36.4498 2.54915C41.2007 4.51703 45.2613 7.84951 48.1182 12.1252C50.9751 16.4009 52.5 21.4277 52.5 26.57C52.4815 33.46 49.7363 40.0624 44.8644 44.9344C39.9924 49.8063 33.39 52.5515 26.5 52.57ZM26.5 2.50002C21.7377 2.50597 17.0842 3.92448 13.1284 6.57604C9.17254 9.2276 6.09215 12.993 4.27703 17.3958C2.46191 21.7987 1.99362 26.641 2.93144 31.31C3.86926 35.979 6.17103 40.265 9.54547 43.6254C12.9199 46.9859 17.2154 49.2698 21.8883 50.1882C26.5612 51.1066 31.4015 50.6182 35.7967 48.7847C40.1919 46.9513 43.9445 43.8553 46.5796 39.8885C49.2147 35.9217 50.6139 31.2623 50.6 26.5C50.5736 20.1256 48.0228 14.0214 43.506 9.52335C38.9893 5.02533 32.8744 2.49996 26.5 2.50002Z" fill="#1E448A"/>
<path d="M20.37 20.95H15.18V37.7H20.37V20.95Z" fill="#1E448A"/>
<path d="M17.75 18.76C18.362 18.764 18.9614 18.5861 19.4721 18.249C19.9829 17.9119 20.3821 17.4307 20.619 16.8664C20.856 16.3022 20.92 15.6803 20.8031 15.0795C20.6861 14.4788 20.3934 13.9264 19.9621 13.4922C19.5307 13.0581 18.9802 12.7618 18.3802 12.6409C17.7803 12.5201 17.158 12.5801 16.5922 12.8134C16.0264 13.0466 15.5426 13.4427 15.2022 13.9512C14.8618 14.4598 14.68 15.058 14.68 15.67C14.6787 16.0745 14.7571 16.4753 14.9106 16.8494C15.0642 17.2236 15.29 17.5639 15.575 17.8508C15.8601 18.1378 16.1989 18.3657 16.5721 18.5217C16.9453 18.6777 17.3455 18.7587 17.75 18.76Z" fill="#1E448A"/>
<path d="M28.65 28.91C28.65 26.55 29.73 25.15 31.81 25.15C33.72 25.15 34.63 26.5 34.63 28.91V37.7H39.79V27.1C39.79 22.61 37.25 20.44 33.7 20.44C32.6908 20.4269 31.6954 20.6751 30.8105 21.1604C29.9256 21.6458 29.1813 22.3519 28.65 23.21V20.95H23.65V37.7H28.65V28.91Z" fill="#1E448A"/>
</svg>
