<svg width="16" height="30" viewBox="0 0 20 32" fill="none" xmlns="http://www.w3.org/2000/svg">
<path d="M15.71 0H3.54C2.60194 0.00263871 1.70306 0.376449 1.03976 1.03976C0.376449 1.70306 0.00263871 2.60194 0 3.54L0 28.54C0.0209077 29.4649 0.403081 30.3449 1.06471 30.9916C1.72633 31.6383 2.61483 32.0002 3.54 32H15.71C16.6462 32 17.5441 31.6281 18.2061 30.9661C18.8681 30.3041 19.24 29.4062 19.24 28.47V3.47C19.2217 2.54505 18.8421 1.664 18.1823 1.01547C17.5226 0.366929 16.6351 0.00243255 15.71 0ZM12.52 30.26H6.72V29.06H12.52V30.26ZM16.6 27.26H2.65V4.77H16.65L16.6 27.26Z" fill="white"/>
</svg>
