<svg xmlns="http://www.w3.org/2000/svg" viewBox="0 0 42.05 43.78"><defs><style>.cls-1{fill:#2bbced;}.cls-1,.cls-2{fill-rule:evenodd;}.cls-2{fill:#1058a2;}</style></defs><g id="Layer_2" data-name="Layer 2"><g id="Layer_1-2" data-name="Layer 1"><path class="cls-1" d="M42.05.76,41.74,0a19.83,19.83,0,0,0-4.25.67,8,8,0,0,0-2.74,1.38A19.16,19.16,0,0,0,32,5q-1.48,1.89-4.31,6.11l-.1.15-.14.22c-1.35,2-2.95,4.49-4.8,7.43q-3,4.77-3.44,4.77c-.34,0-.75-.7-1.25-2.1-.21-.62-.39-1.11-.54-1.48a3.82,3.82,0,0,0-.65-1.16,1,1,0,0,0-.74-.27,4.93,4.93,0,0,0-2.87,1A2.89,2.89,0,0,0,11.72,22a16.71,16.71,0,0,0,.68,3,2.43,2.43,0,0,0,.09.33q.59,2.18,1,3.3a7.86,7.86,0,0,0,.94,1.82,3.32,3.32,0,0,0,1.33,1.13,4.32,4.32,0,0,0,1.82.33c1.75,0,3.09-.94,4-2.83.3-.63.55-1.11.76-1.46q3.9-6.66,8.51-13h0c.2-.27.37-.54.56-.8.85-1.16,1.76-2.29,2.65-3.43,0,0,0,0,0,0q3.8-4.89,8-9.56"/><path class="cls-2" d="M33.42,15.21c-.36.49-.68,1-1,1.48a14.57,14.57,0,1,1-7.18-6.22l.39-.57c1-1.48,1.85-2.75,2.6-3.81a19.84,19.84,0,1,0,7.5,6.16c-.76,1-1.55,2-2.28,3"/></g></g></svg>